<?xml version="1.0" encoding="UTF-8"?>
<!DOCTYPE svg PUBLIC "-//W3C//DTD SVG 1.1//EN" "http://www.w3.org/Graphics/SVG/1.1/DTD/svg11.dtd">
<svg xmlns="http://www.w3.org/2000/svg" version="1.1" width="2522px" height="500px" style="shape-rendering:geometricPrecision; text-rendering:geometricPrecision; image-rendering:optimizeQuality; fill-rule:evenodd; clip-rule:evenodd" xmlns:xlink="http://www.w3.org/1999/xlink">
<g><path style="opacity:1" fill="#fefefe" d="M -0.5,-0.5 C 840.167,-0.5 1680.83,-0.5 2521.5,-0.5C 2521.5,166.167 2521.5,332.833 2521.5,499.5C 1680.83,499.5 840.167,499.5 -0.5,499.5C -0.5,332.833 -0.5,166.167 -0.5,-0.5 Z"/></g>
<g><path style="opacity:1" fill="#111215" d="M 328.5,174.5 C 327.833,169.833 327.167,165.167 326.5,160.5C 326.084,137.509 317.418,118.342 300.5,103C 291.097,95.0502 280.264,90.2169 268,88.5C 266.564,88.5589 265.231,88.8922 264,89.5C 263.667,101.167 263.333,112.833 263,124.5C 262.5,125 262,125.5 261.5,126C 248.833,126.667 236.167,126.667 223.5,126C 222.874,125.25 222.374,124.416 222,123.5C 221.822,111.591 221.322,99.7575 220.5,88C 207.818,89.0052 196.151,93.0052 185.5,100C 184.365,100.749 183.365,100.583 182.5,99.5C 178.499,92.1603 173.999,85.1603 169,78.5C 168.219,77.0563 168.386,75.723 169.5,74.5C 184.267,66.0307 199.767,59.3641 216,54.5C 216.833,54.8333 217.667,55.1667 218.5,55.5C 221.123,60.9949 223.29,66.6616 225,72.5C 225.333,88.8333 225.667,105.167 226,121.5C 227.667,122.833 229.333,122.833 231,121.5C 231.667,105.833 231.667,90.1667 231,74.5C 228.658,65.1414 225.325,56.1414 221,47.5C 220.506,45.8659 220.34,44.1992 220.5,42.5C 271.535,35.1169 313.035,51.4502 345,91.5C 355.114,106.058 361.614,122.058 364.5,139.5C 364.167,141.167 363.833,142.833 363.5,144.5C 351.203,153.808 339.536,163.808 328.5,174.5 Z"/></g>
<g><path style="opacity:1" fill="#111215" d="M 160.5,77.5 C 162.074,77.9371 163.241,78.9371 164,80.5C 168.167,88.1718 172.834,95.5052 178,102.5C 179.187,104.044 179.52,105.711 179,107.5C 167.034,116.127 158.034,127.127 152,140.5C 142.625,148.877 132.958,156.877 123,164.5C 123.159,130.193 135.659,101.193 160.5,77.5 Z"/></g>
<g><path style="opacity:1" fill="#eeeeee" d="M 254.5,83.5 C 256.167,83.5 257.833,83.5 259.5,83.5C 259.5,96.5 259.5,109.5 259.5,122.5C 257.533,122.739 255.699,122.406 254,121.5C 253.188,108.758 253.354,96.0912 254.5,83.5 Z"/></g>
<g><path style="opacity:1" fill="#000000" d="M 566.5,114.5 C 590.5,114.5 614.5,114.5 638.5,114.5C 638.5,186.5 638.5,258.5 638.5,330.5C 667.5,330.5 696.5,330.5 725.5,330.5C 725.5,350.833 725.5,371.167 725.5,391.5C 672.5,391.5 619.5,391.5 566.5,391.5C 566.5,299.167 566.5,206.833 566.5,114.5 Z"/></g>
<g><path style="opacity:1" fill="#000000" d="M 1008.5,114.5 C 1048.83,114.333 1089.17,114.5 1129.5,115C 1152.69,115.924 1170.86,125.757 1184,144.5C 1193.02,161.395 1196.02,179.395 1193,198.5C 1191.69,209.104 1188.02,218.77 1182,227.5C 1176.59,233.415 1170.76,238.748 1164.5,243.5C 1200.62,250.451 1219.29,272.284 1220.5,309C 1220.08,349.73 1200.42,375.73 1161.5,387C 1152.61,389.093 1143.61,390.426 1134.5,391C 1092.5,391.5 1050.5,391.667 1008.5,391.5C 1008.5,299.167 1008.5,206.833 1008.5,114.5 Z"/></g>
<g><path style="opacity:1" fill="#4c4ffc" d="M 2163.5,115.5 C 2189.93,116.256 2214.27,123.756 2236.5,138C 2248.28,147.023 2249.61,157.356 2240.5,169C 2235.07,173.46 2229.07,174.46 2222.5,172C 2209.04,162.937 2194.37,156.604 2178.5,153C 2173.5,152.333 2168.5,152.333 2163.5,153C 2158.27,155.231 2153.27,157.897 2148.5,161C 2111.74,195.345 2089.24,237.511 2081,287.5C 2079.9,305.913 2080.56,324.246 2083,342.5C 2087.18,359.678 2098.01,369.512 2115.5,372C 2163.72,376.975 2197.22,357.141 2216,312.5C 2218.27,305.859 2220.44,299.192 2222.5,292.5C 2191.33,291.92 2161.66,298.42 2133.5,312C 2123.65,313.49 2116.81,309.657 2113,300.5C 2109.79,292.001 2111.62,284.834 2118.5,279C 2138.74,267.746 2160.41,260.746 2183.5,258C 2209.08,254.862 2234.75,253.862 2260.5,255C 2270.79,259.073 2274.62,266.573 2272,277.5C 2271.28,279.949 2270.28,282.283 2269,284.5C 2266.33,286.005 2264.16,288.005 2262.5,290.5C 2254.61,332.82 2233.28,366.32 2198.5,391C 2165.45,410.715 2130.45,415.048 2093.5,404C 2067.69,392.839 2052.19,373.339 2047,345.5C 2039.83,300.703 2045.83,257.703 2065,216.5C 2079.3,183.205 2100.13,154.705 2127.5,131C 2138.29,122.767 2150.29,117.601 2163.5,115.5 Z"/></g>
<g><path style="opacity:1" fill="#4c4ffc" d="M 2390.5,351.5 C 2389.52,354.287 2389.19,357.287 2389.5,360.5C 2397.02,360.825 2404.35,360.492 2411.5,359.5C 2424.5,359.333 2437.5,359.5 2450.5,360C 2463.66,365.834 2467.16,375.334 2461,388.5C 2458.31,392.194 2454.81,394.694 2450.5,396C 2409.61,394.865 2368.94,397.198 2328.5,403C 2321.83,403.667 2315.17,403.667 2308.5,403C 2298.27,397.716 2294.77,389.549 2298,378.5C 2300.85,372.16 2305.68,368.326 2312.5,367C 2326.23,366.456 2339.89,365.289 2353.5,363.5C 2354.53,352.025 2355.19,340.525 2355.5,329C 2354.26,306.843 2353.26,284.676 2352.5,262.5C 2353.47,230.458 2355.14,198.458 2357.5,166.5C 2340.5,167.074 2323.5,167.241 2306.5,167C 2295.07,162.311 2290.91,153.811 2294,141.5C 2296.33,135.836 2300.5,132.336 2306.5,131C 2358.22,126.963 2409.55,129.63 2460.5,139C 2464.59,141.007 2467.43,144.173 2469,148.5C 2471.8,166.372 2464.13,174.705 2446,173.5C 2428.74,172.124 2411.57,170.124 2394.5,167.5C 2394.17,168 2393.83,168.5 2393.5,169C 2392.21,185.808 2391.05,202.641 2390,219.5C 2389.74,263.5 2389.91,307.5 2390.5,351.5 Z"/></g>
<g><path style="opacity:1" fill="#121216" d="M 222.5,132.5 C 236.24,132.054 249.907,132.554 263.5,134C 264.476,140.076 264.81,146.242 264.5,152.5C 250.532,153.614 236.532,153.781 222.5,153C 221.22,150.106 220.554,146.939 220.5,143.5C 220.667,140.5 220.833,137.5 221,134.5C 221.717,133.956 222.217,133.289 222.5,132.5 Z"/></g>
<g><path style="opacity:1" fill="#4c4ffc" d="M 1927.5,132.5 C 1936.54,131.711 1943.04,135.377 1947,143.5C 1960.32,206.81 1973.66,270.143 1987,333.5C 1992,347.822 1997,362.156 2002,376.5C 2005.48,394.051 1998.32,402.551 1980.5,402C 1972.79,397.424 1967.29,390.924 1964,382.5C 1954.73,357.231 1948.57,331.231 1945.5,304.5C 1934.75,305.392 1924.09,306.892 1913.5,309C 1892.34,313.499 1871.17,317.999 1850,322.5C 1839.32,346.198 1828.32,369.865 1817,393.5C 1809.85,402.334 1801.35,403.834 1791.5,398C 1784.92,392.643 1782.75,385.809 1785,377.5C 1792.51,358.148 1800.84,339.148 1810,320.5C 1809.63,315.868 1809.13,311.202 1808.5,306.5C 1808.09,301.491 1809.76,297.324 1813.5,294C 1817.95,291.359 1822.45,288.859 1827,286.5C 1852.89,238.312 1881.56,191.979 1913,147.5C 1917.36,141.97 1922.2,136.97 1927.5,132.5 Z"/></g>
<g><path style="opacity:1" fill="#0f1014" d="M 222.5,313.5 C 223.268,312.737 223.768,311.737 224,310.5C 224.498,307.183 224.665,303.85 224.5,300.5C 225.748,288.848 226.915,277.182 228,265.5C 228.5,230.168 228.667,194.835 228.5,159.5C 237.833,159.5 247.167,159.5 256.5,159.5C 253.406,224.335 257.573,288.668 269,352.5C 269.641,363.728 268.308,374.728 265,385.5C 259.346,391.489 252.846,396.323 245.5,400C 241.88,400.841 238.546,400.174 235.5,398C 230.333,393.5 225.167,389 220,384.5C 218.571,376.215 217.404,367.882 216.5,359.5C 217.851,344.079 219.851,328.745 222.5,313.5 Z"/></g>
<g><path style="opacity:1" fill="#949495" d="M 326.5,160.5 C 327.167,165.167 327.833,169.833 328.5,174.5C 328.44,175.043 328.107,175.376 327.5,175.5C 326.506,170.544 326.173,165.544 326.5,160.5 Z"/></g>
<g><path style="opacity:1" fill="#fbfbfb" d="M 1080.5,169.5 C 1087.84,169.334 1095.17,169.5 1102.5,170C 1125.35,174.179 1132.85,187.346 1125,209.5C 1119.81,217.687 1112.31,222.187 1102.5,223C 1095.17,223.5 1087.84,223.666 1080.5,223.5C 1080.5,205.5 1080.5,187.5 1080.5,169.5 Z"/></g>
<g><path style="opacity:1" fill="#101115" d="M 129.5,194.5 C 139.73,201.379 149.73,208.713 159.5,216.5C 151.185,219.66 143.185,223.327 135.5,227.5C 145.01,232.284 155.01,235.117 165.5,236C 183.833,223.833 202.167,211.667 220.5,199.5C 221.833,205.167 221.833,210.833 220.5,216.5C 182.61,246.938 144.944,277.605 107.5,308.5C 110.558,312.525 114.225,315.858 118.5,318.5C 129.161,309.172 139.494,299.505 149.5,289.5C 149.839,295.165 149.173,300.832 147.5,306.5C 147.833,307.167 148.167,307.833 148.5,308.5C 164.342,294.157 179.676,279.324 194.5,264C 195.6,263.568 196.267,264.068 196.5,265.5C 195.197,270.782 194.697,276.116 195,281.5C 203.958,273.377 212.791,265.044 221.5,256.5C 221.833,257.667 222.167,258.833 222.5,260C 221.88,264.82 221.38,269.653 221,274.5C 217.433,304.226 213.766,333.892 210,363.5C 211.923,371.782 213.59,380.115 215,388.5C 220.5,393.333 226,398.167 231.5,403C 238.862,407.598 246.196,407.598 253.5,403C 259.042,397.789 264.875,392.956 271,388.5C 272.206,382.139 273.539,375.806 275,369.5C 275.667,363.167 275.667,356.833 275,350.5C 269.099,319.705 265.599,288.705 264.5,257.5C 272.849,265.683 281.349,273.683 290,281.5C 290.073,275.829 290.073,270.162 290,264.5C 305.365,279.533 321.032,294.2 337,308.5C 337.209,302.107 336.876,295.774 336,289.5C 345.807,298.639 355.641,307.805 365.5,317C 370.624,316.085 374.624,313.251 377.5,308.5C 339.982,277.152 302.149,246.152 264,215.5C 263.501,210.177 263.334,204.844 263.5,199.5C 280.508,209.649 297.174,220.482 313.5,232C 316.532,234.207 319.866,235.707 323.5,236.5C 332.583,233.694 341.583,230.694 350.5,227.5C 342.12,223.674 333.787,220.007 325.5,216.5C 334.5,209.333 343.5,202.167 352.5,195C 353.5,194.333 354.5,194.333 355.5,195C 384.376,222.045 413.376,248.879 442.5,275.5C 375.859,337.139 309.193,398.805 242.5,460.5C 176.345,399.365 110.179,338.365 44,277.5C 43.2797,275.888 43.4464,274.388 44.5,273C 73.3302,247.335 101.664,221.168 129.5,194.5 Z"/></g>
<g><path style="opacity:1" fill="#010101" d="M 1327.5,197.5 C 1351.63,194.244 1373.63,199.411 1393.5,213C 1396.33,215.833 1399.17,218.667 1402,221.5C 1402.5,215.175 1402.67,208.842 1402.5,202.5C 1424.83,202.5 1447.17,202.5 1469.5,202.5C 1469.5,265.5 1469.5,328.5 1469.5,391.5C 1447.17,391.5 1424.83,391.5 1402.5,391.5C 1402.67,384.825 1402.5,378.158 1402,371.5C 1383.34,391.967 1360.18,400.467 1332.5,397C 1291.06,389.227 1264.56,365.06 1253,324.5C 1243.32,282.876 1253.82,247.376 1284.5,218C 1297.36,207.9 1311.7,201.066 1327.5,197.5 Z"/></g>
<g><path style="opacity:1" fill="#000000" d="M 1515.5,391.5 C 1515.5,328.833 1515.5,266.167 1515.5,203.5C 1537.17,203.5 1558.83,203.5 1580.5,203.5C 1580.17,211.196 1580.5,218.862 1581.5,226.5C 1582.11,226.376 1582.44,226.043 1582.5,225.5C 1601.62,202.846 1625.95,194.346 1655.5,200C 1687.81,204.979 1706.98,223.479 1713,255.5C 1713.5,300.832 1713.67,346.165 1713.5,391.5C 1691.5,391.5 1669.5,391.5 1647.5,391.5C 1647.67,355.832 1647.5,320.165 1647,284.5C 1643.99,256.56 1628.82,246.393 1601.5,254C 1590.53,258.983 1584.03,267.483 1582,279.5C 1581.5,316.832 1581.33,354.165 1581.5,391.5C 1559.5,391.5 1537.5,391.5 1515.5,391.5 Z"/></g>
<g><path style="opacity:1" fill="#fcfcfe" d="M 1920.5,198.5 C 1922.3,201.031 1923.46,204.031 1924,207.5C 1928.42,227.411 1932.25,247.411 1935.5,267.5C 1913.85,270.298 1892.51,274.631 1871.5,280.5C 1871.17,280.167 1870.83,279.833 1870.5,279.5C 1887.44,252.612 1904.11,225.612 1920.5,198.5 Z"/></g>
<g><path style="opacity:1" fill="#434343" d="M 1582.5,225.5 C 1582.44,226.043 1582.11,226.376 1581.5,226.5C 1580.5,218.862 1580.17,211.196 1580.5,203.5C 1558.83,203.5 1537.17,203.5 1515.5,203.5C 1515.5,266.167 1515.5,328.833 1515.5,391.5C 1514.5,328.669 1514.17,265.669 1514.5,202.5C 1536.83,202.5 1559.17,202.5 1581.5,202.5C 1581.17,210.352 1581.51,218.018 1582.5,225.5 Z"/></g>
<g><path style="opacity:1" fill="#000000" d="M 756.5,203.5 C 778.5,203.5 800.5,203.5 822.5,203.5C 822.168,240.67 822.502,277.67 823.5,314.5C 823.878,327.44 829.878,336.607 841.5,342C 850.113,343.505 858.78,343.839 867.5,343C 881.477,339.688 888.977,330.854 890,316.5C 890.5,278.835 890.667,241.168 890.5,203.5C 912.5,203.5 934.5,203.5 956.5,203.5C 956.5,246.5 956.5,289.5 956.5,332.5C 953.237,361.933 937.57,381.433 909.5,391C 876.323,399.995 842.989,400.661 809.5,393C 779.751,384.922 762.251,365.755 757,335.5C 756.5,291.501 756.333,247.501 756.5,203.5 Z"/></g>
<g><path style="opacity:1" fill="#868686" d="M 756.5,203.5 C 778.66,202.503 800.994,202.169 823.5,202.5C 823.5,239.833 823.5,277.167 823.5,314.5C 822.502,277.67 822.168,240.67 822.5,203.5C 800.5,203.5 778.5,203.5 756.5,203.5 Z"/></g>
<g><path style="opacity:1" fill="#5b5b5b" d="M 890.5,203.5 C 912.66,202.503 934.994,202.169 957.5,202.5C 957.832,246.003 957.499,289.337 956.5,332.5C 956.5,289.5 956.5,246.5 956.5,203.5C 934.5,203.5 912.5,203.5 890.5,203.5 Z"/></g>
<g><path style="opacity:1" fill="#fdfdfd" d="M 1352.5,254.5 C 1378.82,252.23 1395.99,263.563 1404,288.5C 1406.78,311.103 1397.95,327.27 1377.5,337C 1349.62,344.736 1330.45,335.236 1320,308.5C 1315.78,281.261 1326.61,263.261 1352.5,254.5 Z"/></g>
<g><path style="opacity:1" fill="#bfbfbf" d="M 1110.5,277.5 C 1100.83,277.5 1091.17,277.5 1081.5,277.5C 1081.5,296.833 1081.5,316.167 1081.5,335.5C 1080.5,316.007 1080.17,296.34 1080.5,276.5C 1090.68,276.173 1100.68,276.506 1110.5,277.5 Z"/></g>
<g><path style="opacity:1" fill="#fdfdfd" d="M 1110.5,277.5 C 1123.82,277.275 1134.99,281.941 1144,291.5C 1149.81,304.039 1148.31,315.539 1139.5,326C 1130.43,331.852 1120.43,334.852 1109.5,335C 1100.17,335.5 1090.84,335.666 1081.5,335.5C 1081.5,316.167 1081.5,296.833 1081.5,277.5C 1091.17,277.5 1100.83,277.5 1110.5,277.5 Z"/></g>
<g><path style="opacity:1" fill="#4f4f51" d="M 224.5,300.5 C 224.665,303.85 224.498,307.183 224,310.5C 223.768,311.737 223.268,312.737 222.5,313.5C 222.624,308.951 223.291,304.618 224.5,300.5 Z"/></g>
<g><path style="opacity:1" fill="#c5c6fe" d="M 2390.5,351.5 C 2390.5,354.167 2390.5,356.833 2390.5,359.5C 2397.5,359.5 2404.5,359.5 2411.5,359.5C 2404.35,360.492 2397.02,360.825 2389.5,360.5C 2389.19,357.287 2389.52,354.287 2390.5,351.5 Z"/></g>
</svg>
